<svg xmlns="http://www.w3.org/2000/svg" xmlns:xlink="http://www.w3.org/1999/xlink" width="500" zoomAndPan="magnify" viewBox="0 0 375 374.999991" height="500" preserveAspectRatio="xMidYMid meet" version="1.0"><defs><clipPath id="93f1a86735"><path d="M 54.375 1 L 302 1 L 302 361 L 54.375 361 Z M 54.375 1 " clip-rule="nonzero"/></clipPath><clipPath id="78a9c3e46d"><path d="M 54.375 6 L 302 6 L 302 361 L 54.375 361 Z M 54.375 6 " clip-rule="nonzero"/></clipPath><clipPath id="34323ed393"><path d="M 54.375 153 L 239 153 L 239 361 L 54.375 361 Z M 54.375 153 " clip-rule="nonzero"/></clipPath><clipPath id="4ade89bbaa"><path d="M 90 22 L 320.625 22 L 320.625 367 L 90 367 Z M 90 22 " clip-rule="nonzero"/></clipPath></defs><g clip-path="url(#93f1a86735)"><path fill="#dcf1f9" d="M 301.902344 28.214844 L 265.355469 7.28125 C 263.757812 6.117188 262.042969 5.128906 260.222656 4.335938 L 259.683594 4.03125 L 259.660156 4.078125 C 249.828125 0.0742188 237.128906 1.519531 223.277344 9.515625 L 110.714844 74.5 C 79.765625 92.371094 54.445312 136.230469 54.445312 171.972656 L 54.445312 301.9375 C 54.445312 319.363281 60.496094 331.726562 70.257812 337.792969 L 70.160156 337.960938 L 110.777344 360.96875 L 133.617188 321.207031 L 223.277344 269.449219 C 254.21875 251.578125 279.546875 207.714844 279.546875 171.976562 L 279.546875 67.132812 Z M 301.902344 28.214844 " fill-opacity="1" fill-rule="nonzero"/></g><g clip-path="url(#78a9c3e46d)"><path fill="#cce6f2" d="M 301.902344 28.214844 L 262.785156 19.042969 C 261.1875 17.875 253.199219 17.90625 251.378906 17.113281 L 248.476562 15.953125 L 243.253906 14.980469 C 233.421875 10.984375 237.128906 1.519531 223.277344 9.515625 L 110.714844 74.5 C 79.765625 92.371094 54.445312 136.230469 54.445312 171.972656 L 54.445312 301.9375 C 54.445312 319.363281 60.496094 331.726562 70.257812 337.792969 L 70.160156 337.960938 L 110.777344 360.96875 L 133.617188 321.207031 L 223.277344 269.449219 C 254.21875 251.578125 279.546875 207.714844 279.546875 171.976562 L 279.546875 67.132812 Z M 301.902344 28.214844 " fill-opacity="1" fill-rule="nonzero"/></g><g clip-path="url(#34323ed393)"><path fill="#bfd9e8" d="M 56.585938 153.25 C 55.222656 159.609375 54.445312 165.910156 54.445312 171.972656 L 54.445312 301.9375 C 54.445312 319.363281 60.496094 331.726562 70.257812 337.792969 L 70.160156 337.960938 L 110.777344 360.96875 L 133.617188 321.207031 L 223.277344 269.449219 C 228.53125 266.410156 233.613281 262.574219 238.445312 258.203125 Z M 56.585938 153.25 " fill-opacity="1" fill-rule="nonzero"/></g><path fill="#ffffff" d="M 149.398438 96.933594 C 118.449219 114.804688 93.121094 158.664062 93.121094 194.402344 L 93.121094 324.367188 C 93.121094 360.113281 118.449219 374.726562 149.398438 356.859375 L 261.953125 291.875 C 292.902344 274.003906 318.230469 230.144531 318.230469 194.402344 L 318.230469 64.445312 C 318.230469 28.703125 292.902344 14.085938 261.953125 31.953125 Z M 149.398438 96.933594 " fill-opacity="1" fill-rule="nonzero"/><path fill="#5bc0d8" d="M 318.234375 64.445312 C 318.234375 28.703125 292.90625 14.085938 261.957031 31.953125 L 149.398438 96.933594 C 118.449219 114.804688 93.121094 158.664062 93.121094 194.402344 L 93.121094 324.367188 C 93.121094 360.113281 118.449219 374.726562 149.398438 356.859375 " fill-opacity="0.098" fill-rule="nonzero"/><g clip-path="url(#4ade89bbaa)"><path fill="#ffffff" d="M 124.402344 366.804688 L 124.394531 366.804688 C 103.992188 366.804688 90.804688 350.144531 90.804688 324.367188 L 90.804688 194.402344 C 90.804688 157.832031 116.566406 113.203125 148.234375 94.925781 L 260.796875 29.941406 C 269.921875 24.675781 278.722656 22.007812 286.957031 22.007812 C 307.363281 22.007812 320.554688 38.664062 320.554688 64.445312 L 320.554688 194.40625 C 320.554688 230.976562 294.785156 275.609375 263.117188 293.890625 L 150.558594 358.871094 C 141.429688 364.132812 132.632812 366.804688 124.402344 366.804688 Z M 286.957031 26.648438 C 279.546875 26.648438 271.527344 29.109375 263.117188 33.957031 L 150.558594 98.9375 C 120.171875 116.488281 95.445312 159.3125 95.445312 194.402344 L 95.445312 324.367188 C 95.445312 347.679688 106.535156 362.164062 124.394531 362.164062 L 124.402344 362.164062 C 131.8125 362.164062 139.828125 359.703125 148.234375 354.851562 L 260.796875 289.871094 C 291.183594 272.328125 315.910156 229.5 315.910156 194.40625 L 315.910156 64.445312 C 315.910156 41.132812 304.820312 26.648438 286.957031 26.648438 Z M 286.957031 26.648438 " fill-opacity="1" fill-rule="nonzero"/></g><path fill="#0a935f" d="M 160.394531 210.183594 C 160.839844 210.183594 161.28125 210.066406 161.675781 209.839844 L 254.175781 156.4375 C 254.96875 155.980469 255.457031 155.136719 255.457031 154.226562 C 255.460938 143.554688 252.800781 134.585938 247.757812 128.296875 C 238.5625 116.839844 222.242188 115.558594 205.378906 125.296875 C 179.164062 140.445312 157.835938 177.378906 157.835938 207.621094 C 157.835938 208.535156 158.324219 209.378906 159.113281 209.835938 C 159.507812 210.066406 159.953125 210.183594 160.394531 210.183594 Z M 160.394531 210.183594 " fill-opacity="1" fill-rule="nonzero"/><path fill="#17bc52" d="M 249.917969 171.398438 C 245.53125 171.398438 239.867188 174.730469 233.308594 178.589844 L 182.003906 208.246094 L 178.484375 210.25 C 166.875 216.8125 156.851562 222.480469 156.851562 237.742188 L 156.851562 281.378906 C 156.851562 293.269531 163.0625 300.957031 172.671875 300.957031 L 172.679688 300.957031 C 176.449219 300.957031 180.453125 299.753906 184.566406 297.378906 L 232.328125 269.804688 C 246.199219 261.789062 257.484375 242.242188 257.484375 226.230469 L 257.484375 182.601562 C 257.484375 173.339844 253.371094 171.398438 249.917969 171.398438 Z M 249.917969 171.398438 " fill-opacity="1" fill-rule="nonzero"/><path fill="#0a935f" d="M 249.917969 171.398438 C 245.53125 171.398438 239.867188 174.730469 233.308594 178.589844 L 182.003906 208.246094 L 178.484375 210.25 C 166.875 216.8125 156.851562 222.480469 156.851562 237.742188 L 156.851562 281.378906 C 156.851562 293.269531 163.0625 300.957031 172.671875 300.957031 L 172.679688 300.957031 C 174.109375 300.957031 175.585938 300.730469 177.078125 300.386719 L 251.460938 171.546875 C 250.941406 171.445312 250.421875 171.398438 249.917969 171.398438 Z M 249.917969 171.398438 " fill-opacity="1" fill-rule="nonzero"/><path fill="#0a935f" d="M 227.050781 128.625 C 226.082031 128.625 225.09375 128.378906 224.195312 127.855469 C 221.449219 126.273438 220.511719 122.769531 222.09375 120.027344 L 235.335938 97.09375 C 236.925781 94.355469 240.425781 93.410156 243.164062 95.003906 C 245.90625 96.585938 246.847656 100.089844 245.261719 102.832031 L 232.019531 125.757812 C 230.960938 127.601562 229.035156 128.625 227.050781 128.625 Z M 227.050781 128.625 " fill-opacity="1" fill-rule="nonzero"/><path fill="#0a935f" d="M 187.34375 151.554688 C 186.367188 151.554688 185.382812 151.308594 184.480469 150.785156 L 171.164062 143.097656 C 168.421875 141.511719 167.484375 138.011719 169.070312 135.269531 C 170.652344 132.523438 174.160156 131.585938 176.898438 133.171875 L 190.214844 140.859375 C 192.957031 142.441406 193.898438 145.945312 192.308594 148.6875 C 191.25 150.53125 189.320312 151.554688 187.34375 151.554688 Z M 187.34375 151.554688 " fill-opacity="1" fill-rule="nonzero"/><path fill="#ffffff" d="M 183.085938 180.105469 C 183.085938 177.109375 185.199219 173.4375 187.792969 171.945312 C 190.386719 170.449219 192.507812 171.667969 192.507812 174.664062 C 192.507812 177.65625 190.386719 181.332031 187.792969 182.828125 C 185.199219 184.320312 183.085938 183.101562 183.085938 180.105469 Z M 183.085938 180.105469 " fill-opacity="1" fill-rule="nonzero"/><path fill="#ffffff" d="M 223.25 157.136719 C 223.25 154.140625 225.371094 150.46875 227.964844 148.972656 C 230.558594 147.476562 232.675781 148.695312 232.675781 151.691406 C 232.675781 154.6875 230.554688 158.359375 227.964844 159.855469 C 225.371094 161.355469 223.25 160.132812 223.25 157.136719 Z M 223.25 157.136719 " fill-opacity="1" fill-rule="nonzero"/></svg>