<svg xmlns="http://www.w3.org/2000/svg" xmlns:xlink="http://www.w3.org/1999/xlink" width="500" zoomAndPan="magnify" viewBox="0 0 375 374.999991" height="500" preserveAspectRatio="xMidYMid meet" version="1.0"><defs><g/><clipPath id="a16fa0beab"><path d="M 20.226562 0 L 280 0 L 280 335.613281 L 20.226562 335.613281 Z M 20.226562 0 " clip-rule="nonzero"/></clipPath><clipPath id="c8c1e69364"><path d="M 180.582031 276.28125 L 354.945312 276.28125 L 354.945312 375 L 180.582031 375 Z M 180.582031 276.28125 " clip-rule="nonzero"/></clipPath><clipPath id="5ab5a55863"><path d="M 197.832031 276.28125 L 337.523438 276.28125 C 347.050781 276.28125 354.773438 284.003906 354.773438 293.53125 L 354.773438 357.75 C 354.773438 367.277344 347.050781 375 337.523438 375 L 197.832031 375 C 188.304688 375 180.582031 367.277344 180.582031 357.75 L 180.582031 293.53125 C 180.582031 284.003906 188.304688 276.28125 197.832031 276.28125 " clip-rule="nonzero"/></clipPath></defs><path fill="#fddfb3" d="M 273.09375 72.574219 L 273.09375 329.375 L 27.457031 329.375 L 27.457031 6.894531 L 207.085938 6.894531 C 229.089844 28.898438 251.089844 50.570312 273.09375 72.574219 Z M 273.09375 72.574219 " fill-opacity="1" fill-rule="nonzero"/><path fill="#feefd9" d="M 273.09375 72.574219 L 207.414062 72.574219 L 207.414062 6.894531 C 229.089844 28.898438 251.089844 50.570312 273.09375 72.574219 Z M 273.09375 72.574219 " fill-opacity="1" fill-rule="nonzero"/><path fill="#a7a9ac" d="M 142.066406 97.203125 C 142.066406 112.636719 129.585938 125.117188 114.152344 125.117188 C 98.71875 125.117188 86.238281 112.636719 86.238281 97.203125 L 86.566406 93.261719 L 93.464844 6.894531 L 134.839844 6.894531 L 141.738281 93.261719 Z M 142.066406 97.203125 " fill-opacity="1" fill-rule="nonzero"/><g clip-path="url(#a16fa0beab)"><path fill="#000000" d="M 279.332031 71.261719 C 279.332031 70.605469 279.003906 70.277344 278.675781 69.617188 C 278.675781 69.617188 278.675781 69.289062 278.347656 69.289062 C 278.019531 68.632812 277.691406 68.304688 277.363281 67.976562 L 255.6875 46.304688 C 240.910156 31.527344 226.132812 16.746094 211.355469 1.96875 C 211.027344 1.640625 210.371094 1.3125 210.042969 0.984375 C 210.042969 0.984375 209.714844 0.984375 209.714844 0.65625 C 209.058594 0.328125 208.730469 0.328125 208.074219 0 C 207.742188 0 207.085938 0 206.757812 0 L 27.457031 0 C 23.84375 0 20.890625 2.957031 20.890625 6.566406 L 20.890625 329.046875 C 20.890625 332.660156 23.84375 335.613281 27.457031 335.613281 L 272.765625 335.613281 C 276.378906 335.613281 279.332031 332.660156 279.332031 329.046875 L 279.332031 72.574219 C 279.660156 72.246094 279.332031 71.917969 279.332031 71.261719 Z M 257.003906 66.007812 L 213.65625 66.007812 L 213.65625 22.660156 C 224.492188 33.496094 235.65625 44.660156 246.492188 55.496094 Z M 128.601562 13.464844 L 135.167969 93.917969 L 135.5 97.53125 C 135.5 109.027344 125.976562 118.550781 114.152344 118.550781 C 102.332031 118.550781 92.808594 109.027344 92.808594 97.53125 L 99.703125 13.464844 Z M 120.71875 322.808594 L 120.71875 301.132812 L 141.082031 301.132812 L 141.082031 288 L 120.71875 288 L 120.71875 264.355469 L 141.082031 264.355469 L 141.082031 251.21875 L 120.71875 251.21875 L 120.71875 227.574219 L 141.082031 227.574219 L 141.082031 214.4375 L 120.71875 214.4375 L 120.71875 190.792969 L 141.082031 190.792969 L 141.082031 177.660156 L 120.71875 177.660156 L 120.71875 154.015625 L 141.082031 154.015625 L 141.082031 140.878906 L 120.71875 140.878906 L 120.71875 136.28125 L 107.585938 136.28125 L 107.585938 157.957031 L 87.226562 157.957031 L 87.226562 171.089844 L 107.585938 171.089844 L 107.585938 194.40625 L 87.226562 194.40625 L 87.226562 207.542969 L 107.585938 207.542969 L 107.585938 231.1875 L 87.226562 231.1875 L 87.226562 244.320312 L 107.585938 244.320312 L 107.585938 267.964844 L 87.226562 267.964844 L 87.226562 281.101562 L 107.585938 281.101562 L 107.585938 304.746094 L 87.226562 304.746094 L 87.226562 317.882812 L 107.585938 317.882812 L 107.585938 322.480469 L 34.027344 322.480469 L 34.027344 13.464844 L 86.238281 13.464844 L 79.671875 92.933594 L 79.34375 96.875 C 79.34375 96.875 79.34375 97.203125 79.34375 97.203125 C 79.34375 116.25 94.777344 131.683594 113.824219 131.683594 C 132.871094 131.683594 148.304688 116.25 148.304688 97.203125 C 148.304688 97.203125 148.304688 96.875 148.304688 96.875 L 141.738281 13.464844 L 200.519531 13.464844 L 200.519531 72.574219 C 200.519531 76.1875 203.476562 79.140625 207.085938 79.140625 L 266.199219 79.140625 L 266.199219 322.808594 Z M 120.71875 322.808594 " fill-opacity="1" fill-rule="nonzero"/></g><path fill="#ffffff" d="M 129.585938 95.234375 C 129.585938 103.769531 122.691406 110.667969 114.152344 110.667969 C 105.613281 110.667969 98.71875 103.769531 98.71875 95.234375 C 98.71875 86.695312 105.613281 79.796875 114.152344 79.796875 C 122.691406 79.796875 129.585938 86.695312 129.585938 95.234375 Z M 129.585938 95.234375 " fill-opacity="1" fill-rule="nonzero"/><g clip-path="url(#c8c1e69364)"><g clip-path="url(#5ab5a55863)"><path fill="#5e17eb" d="M 180.582031 276.28125 L 354.945312 276.28125 L 354.945312 374.605469 L 180.582031 374.605469 Z M 180.582031 276.28125 " fill-opacity="1" fill-rule="nonzero"/></g></g><g fill="#ffffff" fill-opacity="1"><g transform="translate(210.509463, 347.830419)"><g><path d="M 2.859375 -43.59375 L 18.6875 -43.59375 C 24.082031 -43.59375 28.085938 -42.332031 30.703125 -39.8125 C 33.316406 -37.300781 34.625 -33.410156 34.625 -28.140625 L 34.625 -15.4375 C 34.625 -10.164062 33.316406 -6.273438 30.703125 -3.765625 C 28.085938 -1.253906 24.082031 0 18.6875 0 L 2.859375 0 L 2.859375 -7.90625 L 6.96875 -7.90625 L 6.96875 -35.734375 L 2.859375 -35.734375 Z M 18.6875 -7.84375 C 21.539062 -7.84375 23.539062 -8.515625 24.6875 -9.859375 C 25.832031 -11.210938 26.40625 -13.320312 26.40625 -16.1875 L 26.40625 -28.140625 C 26.40625 -30.628906 25.832031 -32.515625 24.6875 -33.796875 C 23.539062 -35.085938 21.539062 -35.734375 18.6875 -35.734375 L 15.1875 -35.734375 L 15.1875 -7.84375 Z M 18.6875 -7.84375 "/></g></g></g><g fill="#ffffff" fill-opacity="1"><g transform="translate(248.614786, 347.830419)"><g><path d="M 5.109375 -43.59375 L 32.625 -43.59375 L 32.625 -35.734375 L 13.328125 -35.734375 L 13.328125 -25.78125 L 31.875 -25.78125 L 31.875 -17.9375 L 13.328125 -17.9375 L 13.328125 -7.84375 L 33.375 -7.84375 L 33.375 0 L 5.109375 0 Z M 5.109375 -43.59375 "/></g></g></g><g fill="#ffffff" fill-opacity="1"><g transform="translate(286.72011, 347.830419)"><g><path d="M 2.859375 -7.84375 L 6.96875 -7.84375 L 6.96875 -35.734375 L 2.859375 -35.734375 L 2.859375 -43.59375 L 21.984375 -43.59375 C 24.054688 -43.59375 25.890625 -43.300781 27.484375 -42.71875 C 29.085938 -42.132812 30.4375 -41.34375 31.53125 -40.34375 C 32.632812 -39.351562 33.46875 -38.160156 34.03125 -36.765625 C 34.59375 -35.378906 34.875 -33.875 34.875 -32.25 L 34.875 -31.5 C 34.875 -29.007812 34.175781 -27.015625 32.78125 -25.515625 C 31.394531 -24.023438 29.640625 -22.992188 27.515625 -22.421875 L 27.515625 -21.296875 C 29.640625 -20.710938 31.394531 -19.660156 32.78125 -18.140625 C 34.175781 -16.628906 34.875 -14.628906 34.875 -12.140625 L 34.875 -11.390625 C 34.875 -9.773438 34.59375 -8.269531 34.03125 -6.875 C 33.46875 -5.488281 32.632812 -4.285156 31.53125 -3.265625 C 30.4375 -2.253906 29.085938 -1.457031 27.484375 -0.875 C 25.890625 -0.289062 24.054688 0 21.984375 0 L 2.859375 0 Z M 15.1875 -7.84375 L 21.171875 -7.84375 C 22.910156 -7.84375 24.316406 -8.21875 25.390625 -8.96875 C 26.472656 -9.71875 27.015625 -10.960938 27.015625 -12.703125 L 27.015625 -13.078125 C 27.015625 -14.816406 26.472656 -16.0625 25.390625 -16.8125 C 24.316406 -17.5625 22.910156 -17.9375 21.171875 -17.9375 L 15.1875 -17.9375 Z M 15.1875 -25.78125 L 21.171875 -25.78125 C 22.910156 -25.78125 24.316406 -26.140625 25.390625 -26.859375 C 26.472656 -27.585938 27.015625 -28.828125 27.015625 -30.578125 L 27.015625 -30.953125 C 27.015625 -32.691406 26.472656 -33.921875 25.390625 -34.640625 C 24.316406 -35.367188 22.910156 -35.734375 21.171875 -35.734375 L 15.1875 -35.734375 Z M 15.1875 -25.78125 "/></g></g></g></svg>