<svg xmlns="http://www.w3.org/2000/svg" xmlns:xlink="http://www.w3.org/1999/xlink" width="500" zoomAndPan="magnify" viewBox="0 0 375 374.999991" height="500" preserveAspectRatio="xMidYMid meet" version="1.0"><defs><g/><clipPath id="9ecc262681"><path d="M 45 0 L 301.5 0 L 301.5 337.5 L 45 337.5 Z M 45 0 " clip-rule="nonzero"/></clipPath><clipPath id="c2ed943163"><path d="M 180.582031 276.28125 L 354.769531 276.28125 L 354.769531 374.996094 L 180.582031 374.996094 Z M 180.582031 276.28125 " clip-rule="nonzero"/></clipPath><clipPath id="151577b79b"><path d="M 197.832031 276.28125 L 337.523438 276.28125 C 347.050781 276.28125 354.773438 284.003906 354.773438 293.53125 L 354.773438 357.75 C 354.773438 367.277344 347.050781 375 337.523438 375 L 197.832031 375 C 188.304688 375 180.582031 367.277344 180.582031 357.75 L 180.582031 293.53125 C 180.582031 284.003906 188.304688 276.28125 197.832031 276.28125 " clip-rule="nonzero"/></clipPath><linearGradient x1="-0.00000232531" gradientTransform="matrix(0.655497, 0, 0, 0.655497, 180.58167, 276.280543)" y1="0" x2="265.734367" gradientUnits="userSpaceOnUse" y2="0" id="3e9734c064"><stop stop-opacity="1" stop-color="rgb(100%, 39.99939%, 76.899719%)" offset="0"/><stop stop-opacity="1" stop-color="rgb(100%, 40.182495%, 76.734924%)" offset="0.0078125"/><stop stop-opacity="1" stop-color="rgb(100%, 40.550232%, 76.40686%)" offset="0.015625"/><stop stop-opacity="1" stop-color="rgb(100%, 40.917969%, 76.078796%)" offset="0.0234375"/><stop stop-opacity="1" stop-color="rgb(100%, 41.287231%, 75.750732%)" offset="0.03125"/><stop stop-opacity="1" stop-color="rgb(100%, 41.654968%, 75.422668%)" offset="0.0390625"/><stop stop-opacity="1" stop-color="rgb(100%, 42.022705%, 75.093079%)" offset="0.046875"/><stop stop-opacity="1" stop-color="rgb(100%, 42.390442%, 74.765015%)" offset="0.0546875"/><stop stop-opacity="1" stop-color="rgb(100%, 42.758179%, 74.436951%)" offset="0.0625"/><stop stop-opacity="1" stop-color="rgb(100%, 43.125916%, 74.108887%)" offset="0.0703125"/><stop stop-opacity="1" stop-color="rgb(100%, 43.493652%, 73.780823%)" offset="0.078125"/><stop stop-opacity="1" stop-color="rgb(100%, 43.862915%, 73.452759%)" offset="0.0859375"/><stop stop-opacity="1" stop-color="rgb(100%, 44.230652%, 73.124695%)" offset="0.09375"/><stop stop-opacity="1" stop-color="rgb(100%, 44.598389%, 72.796631%)" offset="0.101563"/><stop stop-opacity="1" stop-color="rgb(100%, 44.966125%, 72.468567%)" offset="0.109375"/><stop stop-opacity="1" stop-color="rgb(100%, 45.333862%, 72.140503%)" offset="0.117188"/><stop stop-opacity="1" stop-color="rgb(100%, 45.701599%, 71.812439%)" offset="0.125"/><stop stop-opacity="1" stop-color="rgb(100%, 46.069336%, 71.484375%)" offset="0.132812"/><stop stop-opacity="1" stop-color="rgb(100%, 46.438599%, 71.156311%)" offset="0.140625"/><stop stop-opacity="1" stop-color="rgb(100%, 46.806335%, 70.828247%)" offset="0.148438"/><stop stop-opacity="1" stop-color="rgb(100%, 47.174072%, 70.500183%)" offset="0.15625"/><stop stop-opacity="1" stop-color="rgb(100%, 47.541809%, 70.172119%)" offset="0.164062"/><stop stop-opacity="1" stop-color="rgb(100%, 47.909546%, 69.844055%)" offset="0.171875"/><stop stop-opacity="1" stop-color="rgb(100%, 48.277283%, 69.515991%)" offset="0.179688"/><stop stop-opacity="1" stop-color="rgb(100%, 48.646545%, 69.187927%)" offset="0.1875"/><stop stop-opacity="1" stop-color="rgb(100%, 49.014282%, 68.859863%)" offset="0.195312"/><stop stop-opacity="1" stop-color="rgb(100%, 49.382019%, 68.531799%)" offset="0.203125"/><stop stop-opacity="1" stop-color="rgb(100%, 49.749756%, 68.203735%)" offset="0.210938"/><stop stop-opacity="1" stop-color="rgb(100%, 50.117493%, 67.875671%)" offset="0.21875"/><stop stop-opacity="1" stop-color="rgb(100%, 50.485229%, 67.547607%)" offset="0.226562"/><stop stop-opacity="1" stop-color="rgb(100%, 50.852966%, 67.219543%)" offset="0.234375"/><stop stop-opacity="1" stop-color="rgb(100%, 51.222229%, 66.889954%)" offset="0.242188"/><stop stop-opacity="1" stop-color="rgb(100%, 51.589966%, 66.56189%)" offset="0.25"/><stop stop-opacity="1" stop-color="rgb(100%, 51.957703%, 66.233826%)" offset="0.257812"/><stop stop-opacity="1" stop-color="rgb(100%, 52.325439%, 65.905762%)" offset="0.265625"/><stop stop-opacity="1" stop-color="rgb(100%, 52.693176%, 65.577698%)" offset="0.273438"/><stop stop-opacity="1" stop-color="rgb(100%, 53.060913%, 65.249634%)" offset="0.28125"/><stop stop-opacity="1" stop-color="rgb(100%, 53.430176%, 64.92157%)" offset="0.289062"/><stop stop-opacity="1" stop-color="rgb(100%, 53.797913%, 64.593506%)" offset="0.296875"/><stop stop-opacity="1" stop-color="rgb(100%, 54.165649%, 64.265442%)" offset="0.304688"/><stop stop-opacity="1" stop-color="rgb(100%, 54.533386%, 63.937378%)" offset="0.3125"/><stop stop-opacity="1" stop-color="rgb(100%, 54.901123%, 63.609314%)" offset="0.320312"/><stop stop-opacity="1" stop-color="rgb(100%, 55.26886%, 63.28125%)" offset="0.328125"/><stop stop-opacity="1" stop-color="rgb(100%, 55.636597%, 62.953186%)" offset="0.335937"/><stop stop-opacity="1" stop-color="rgb(100%, 56.005859%, 62.625122%)" offset="0.34375"/><stop stop-opacity="1" stop-color="rgb(100%, 56.373596%, 62.297058%)" offset="0.351562"/><stop stop-opacity="1" stop-color="rgb(100%, 56.741333%, 61.968994%)" offset="0.359375"/><stop stop-opacity="1" stop-color="rgb(100%, 57.10907%, 61.64093%)" offset="0.367187"/><stop stop-opacity="1" stop-color="rgb(100%, 57.476807%, 61.312866%)" offset="0.375"/><stop stop-opacity="1" stop-color="rgb(100%, 57.844543%, 60.984802%)" offset="0.382812"/><stop stop-opacity="1" stop-color="rgb(100%, 58.21228%, 60.656738%)" offset="0.390625"/><stop stop-opacity="1" stop-color="rgb(100%, 58.581543%, 60.328674%)" offset="0.398437"/><stop stop-opacity="1" stop-color="rgb(100%, 58.94928%, 60.00061%)" offset="0.40625"/><stop stop-opacity="1" stop-color="rgb(100%, 59.317017%, 59.672546%)" offset="0.414062"/><stop stop-opacity="1" stop-color="rgb(100%, 59.684753%, 59.344482%)" offset="0.421875"/><stop stop-opacity="1" stop-color="rgb(100%, 60.05249%, 59.016418%)" offset="0.429688"/><stop stop-opacity="1" stop-color="rgb(100%, 60.420227%, 58.686829%)" offset="0.4375"/><stop stop-opacity="1" stop-color="rgb(100%, 60.78949%, 58.358765%)" offset="0.445312"/><stop stop-opacity="1" stop-color="rgb(100%, 61.157227%, 58.030701%)" offset="0.453125"/><stop stop-opacity="1" stop-color="rgb(100%, 61.524963%, 57.702637%)" offset="0.460937"/><stop stop-opacity="1" stop-color="rgb(100%, 61.8927%, 57.374573%)" offset="0.46875"/><stop stop-opacity="1" stop-color="rgb(100%, 62.260437%, 57.046509%)" offset="0.476562"/><stop stop-opacity="1" stop-color="rgb(100%, 62.628174%, 56.718445%)" offset="0.484375"/><stop stop-opacity="1" stop-color="rgb(100%, 62.995911%, 56.390381%)" offset="0.492187"/><stop stop-opacity="1" stop-color="rgb(100%, 63.365173%, 56.062317%)" offset="0.5"/><stop stop-opacity="1" stop-color="rgb(100%, 63.73291%, 55.734253%)" offset="0.507812"/><stop stop-opacity="1" stop-color="rgb(100%, 64.100647%, 55.406189%)" offset="0.515625"/><stop stop-opacity="1" stop-color="rgb(100%, 64.468384%, 55.078125%)" offset="0.523438"/><stop stop-opacity="1" stop-color="rgb(100%, 64.836121%, 54.750061%)" offset="0.53125"/><stop stop-opacity="1" stop-color="rgb(100%, 65.203857%, 54.421997%)" offset="0.539062"/><stop stop-opacity="1" stop-color="rgb(100%, 65.57312%, 54.093933%)" offset="0.546875"/><stop stop-opacity="1" stop-color="rgb(100%, 65.940857%, 53.765869%)" offset="0.554687"/><stop stop-opacity="1" stop-color="rgb(100%, 66.308594%, 53.437805%)" offset="0.5625"/><stop stop-opacity="1" stop-color="rgb(100%, 66.676331%, 53.109741%)" offset="0.570313"/><stop stop-opacity="1" stop-color="rgb(100%, 67.044067%, 52.781677%)" offset="0.578125"/><stop stop-opacity="1" stop-color="rgb(100%, 67.411804%, 52.453613%)" offset="0.585938"/><stop stop-opacity="1" stop-color="rgb(100%, 67.779541%, 52.125549%)" offset="0.59375"/><stop stop-opacity="1" stop-color="rgb(100%, 68.148804%, 51.797485%)" offset="0.601562"/><stop stop-opacity="1" stop-color="rgb(100%, 68.516541%, 51.469421%)" offset="0.609375"/><stop stop-opacity="1" stop-color="rgb(100%, 68.884277%, 51.141357%)" offset="0.617188"/><stop stop-opacity="1" stop-color="rgb(100%, 69.252014%, 50.813293%)" offset="0.625"/><stop stop-opacity="1" stop-color="rgb(100%, 69.619751%, 50.483704%)" offset="0.632812"/><stop stop-opacity="1" stop-color="rgb(100%, 69.987488%, 50.15564%)" offset="0.640625"/><stop stop-opacity="1" stop-color="rgb(100%, 70.35675%, 49.827576%)" offset="0.648437"/><stop stop-opacity="1" stop-color="rgb(100%, 70.724487%, 49.499512%)" offset="0.65625"/><stop stop-opacity="1" stop-color="rgb(100%, 71.092224%, 49.171448%)" offset="0.664063"/><stop stop-opacity="1" stop-color="rgb(100%, 71.459961%, 48.843384%)" offset="0.671875"/><stop stop-opacity="1" stop-color="rgb(100%, 71.827698%, 48.51532%)" offset="0.679688"/><stop stop-opacity="1" stop-color="rgb(100%, 72.195435%, 48.187256%)" offset="0.6875"/><stop stop-opacity="1" stop-color="rgb(100%, 72.563171%, 47.859192%)" offset="0.695312"/><stop stop-opacity="1" stop-color="rgb(100%, 72.932434%, 47.531128%)" offset="0.703125"/><stop stop-opacity="1" stop-color="rgb(100%, 73.300171%, 47.203064%)" offset="0.710938"/><stop stop-opacity="1" stop-color="rgb(100%, 73.667908%, 46.875%)" offset="0.71875"/><stop stop-opacity="1" stop-color="rgb(100%, 74.035645%, 46.546936%)" offset="0.726562"/><stop stop-opacity="1" stop-color="rgb(100%, 74.403381%, 46.218872%)" offset="0.734375"/><stop stop-opacity="1" stop-color="rgb(100%, 74.771118%, 45.890808%)" offset="0.742188"/><stop stop-opacity="1" stop-color="rgb(100%, 75.138855%, 45.562744%)" offset="0.75"/><stop stop-opacity="1" stop-color="rgb(100%, 75.508118%, 45.23468%)" offset="0.757813"/><stop stop-opacity="1" stop-color="rgb(100%, 75.875854%, 44.906616%)" offset="0.765625"/><stop stop-opacity="1" stop-color="rgb(100%, 76.243591%, 44.578552%)" offset="0.773438"/><stop stop-opacity="1" stop-color="rgb(100%, 76.611328%, 44.250488%)" offset="0.78125"/><stop stop-opacity="1" stop-color="rgb(100%, 76.979065%, 43.922424%)" offset="0.789062"/><stop stop-opacity="1" stop-color="rgb(100%, 77.346802%, 43.59436%)" offset="0.796875"/><stop stop-opacity="1" stop-color="rgb(100%, 77.716064%, 43.266296%)" offset="0.804688"/><stop stop-opacity="1" stop-color="rgb(100%, 78.083801%, 42.938232%)" offset="0.8125"/><stop stop-opacity="1" stop-color="rgb(100%, 78.451538%, 42.610168%)" offset="0.820312"/><stop stop-opacity="1" stop-color="rgb(100%, 78.819275%, 42.280579%)" offset="0.828125"/><stop stop-opacity="1" stop-color="rgb(100%, 79.187012%, 41.952515%)" offset="0.835938"/><stop stop-opacity="1" stop-color="rgb(100%, 79.554749%, 41.624451%)" offset="0.84375"/><stop stop-opacity="1" stop-color="rgb(100%, 79.922485%, 41.296387%)" offset="0.851563"/><stop stop-opacity="1" stop-color="rgb(100%, 80.291748%, 40.968323%)" offset="0.859375"/><stop stop-opacity="1" stop-color="rgb(100%, 80.659485%, 40.640259%)" offset="0.867188"/><stop stop-opacity="1" stop-color="rgb(100%, 81.027222%, 40.312195%)" offset="0.875"/><stop stop-opacity="1" stop-color="rgb(100%, 81.394958%, 39.984131%)" offset="0.882812"/><stop stop-opacity="1" stop-color="rgb(100%, 81.762695%, 39.656067%)" offset="0.890625"/><stop stop-opacity="1" stop-color="rgb(100%, 82.130432%, 39.328003%)" offset="0.898437"/><stop stop-opacity="1" stop-color="rgb(100%, 82.499695%, 38.999939%)" offset="0.90625"/><stop stop-opacity="1" stop-color="rgb(100%, 82.867432%, 38.671875%)" offset="0.914063"/><stop stop-opacity="1" stop-color="rgb(100%, 83.235168%, 38.343811%)" offset="0.921875"/><stop stop-opacity="1" stop-color="rgb(100%, 83.602905%, 38.015747%)" offset="0.929688"/><stop stop-opacity="1" stop-color="rgb(100%, 83.970642%, 37.687683%)" offset="0.9375"/><stop stop-opacity="1" stop-color="rgb(100%, 84.338379%, 37.359619%)" offset="0.945312"/><stop stop-opacity="1" stop-color="rgb(100%, 84.706116%, 37.031555%)" offset="0.953125"/><stop stop-opacity="1" stop-color="rgb(100%, 85.075378%, 36.703491%)" offset="0.960938"/><stop stop-opacity="1" stop-color="rgb(100%, 85.443115%, 36.375427%)" offset="0.96875"/><stop stop-opacity="1" stop-color="rgb(100%, 85.810852%, 36.047363%)" offset="0.976562"/><stop stop-opacity="1" stop-color="rgb(100%, 86.178589%, 35.719299%)" offset="0.984375"/><stop stop-opacity="1" stop-color="rgb(100%, 86.546326%, 35.391235%)" offset="0.992187"/><stop stop-opacity="1" stop-color="rgb(100%, 86.914062%, 35.063171%)" offset="1"/></linearGradient></defs><path fill="#004aad" d="M 220.5 3.957031 L 220.5 81 L 297.542969 81 Z M 220.5 3.957031 " fill-opacity="1" fill-rule="nonzero"/><path fill="#004aad" d="M 147.070312 194.929688 C 154.976562 202.839844 154.976562 215.660156 147.070312 223.570312 C 139.160156 231.476562 126.339844 231.476562 118.429688 223.570312 C 110.523438 215.660156 110.523438 202.839844 118.429688 194.929688 C 126.339844 187.023438 139.160156 187.023438 147.070312 194.929688 " fill-opacity="1" fill-rule="nonzero"/><g clip-path="url(#9ecc262681)"><path fill="#004aad" d="M 213.75 94.5 C 210.015625 94.5 207 91.476562 207 87.75 L 207 0 L 139.5 0 L 139.5 33.75 C 139.5 37.476562 136.476562 40.5 132.75 40.5 C 129.023438 40.5 126 37.476562 126 33.75 L 126 0 L 51.75 0 C 48.023438 0 45 3.023438 45 6.75 L 45 330.75 C 45 334.484375 48.023438 337.5 51.75 337.5 L 294.75 337.5 C 298.484375 337.5 301.5 334.484375 301.5 330.75 L 301.5 94.5 Z M 126 87.75 C 126 84.023438 129.023438 81 132.75 81 C 136.476562 81 139.5 84.023438 139.5 87.75 L 139.5 101.25 C 139.5 104.976562 136.476562 108 132.75 108 C 129.023438 108 126 104.976562 126 101.25 Z M 132.75 243 C 114.140625 243 99 227.859375 99 209.25 C 99 192.957031 110.617188 179.3125 126 176.1875 L 126 155.25 C 126 151.523438 129.023438 148.5 132.75 148.5 C 136.476562 148.5 139.5 151.523438 139.5 155.25 L 139.5 176.1875 C 154.882812 179.320312 166.5 192.957031 166.5 209.25 C 166.5 227.859375 151.359375 243 132.75 243 Z M 132.75 243 " fill-opacity="1" fill-rule="nonzero"/></g><g clip-path="url(#c2ed943163)"><g clip-path="url(#151577b79b)"><path fill="url(#3e9734c064)" d="M 180.582031 276.28125 L 180.582031 374.996094 L 354.769531 374.996094 L 354.769531 276.28125 Z M 180.582031 276.28125 " fill-rule="nonzero"/></g></g><g fill="#ffffff" fill-opacity="1"><g transform="translate(211.611025, 345.89025)"><g><path d="M 34.96875 -30.046875 C 34.96875 -27.992188 34.582031 -26.195312 33.8125 -24.65625 C 33.050781 -23.125 32.015625 -21.828125 30.703125 -20.765625 C 29.398438 -19.710938 27.9375 -18.863281 26.3125 -18.21875 L 37.625 0 L 26.0625 0 L 16.71875 -16.5 L 13.828125 -16.5 L 13.828125 0 L 3.609375 0 L 3.609375 -43.15625 L 17.1875 -43.15625 C 23.0625 -43.15625 27.492188 -42.085938 30.484375 -39.953125 C 33.472656 -37.816406 34.96875 -34.515625 34.96875 -30.046875 Z M 24.453125 -30.046875 C 24.453125 -32.128906 23.84375 -33.640625 22.625 -34.578125 C 21.40625 -35.523438 19.601562 -36 17.21875 -36 L 13.828125 -36 L 13.828125 -23.515625 L 17.625 -23.515625 C 19.84375 -23.515625 21.535156 -24.03125 22.703125 -25.0625 C 23.867188 -26.101562 24.453125 -27.765625 24.453125 -30.046875 Z M 24.453125 -30.046875 "/></g></g></g><g fill="#ffffff" fill-opacity="1"><g transform="translate(248.98214, 345.89025)"><g><path d="M 25.375 -29.078125 C 25.375 -30.617188 25.085938 -31.890625 24.515625 -32.890625 C 23.953125 -33.898438 23.09375 -34.648438 21.9375 -35.140625 C 20.78125 -35.628906 19.332031 -35.875 17.59375 -35.875 L 14.109375 -35.875 L 14.109375 -21.765625 L 18.125 -21.765625 C 19.632812 -21.765625 20.929688 -22.023438 22.015625 -22.546875 C 23.097656 -23.066406 23.925781 -23.863281 24.5 -24.9375 C 25.082031 -26.019531 25.375 -27.398438 25.375 -29.078125 Z M 35.90625 -29.109375 C 35.90625 -25.773438 35.1875 -23.015625 33.75 -20.828125 C 32.320312 -18.648438 30.320312 -17.023438 27.75 -15.953125 C 25.175781 -14.890625 22.1875 -14.359375 18.78125 -14.359375 L 14.109375 -14.359375 L 14.109375 0 L 3.890625 0 L 3.890625 -43.15625 L 17.46875 -43.15625 C 23.320312 -43.15625 27.859375 -41.992188 31.078125 -39.671875 C 34.296875 -37.347656 35.90625 -33.828125 35.90625 -29.109375 Z M 35.90625 -29.109375 "/></g></g></g><g fill="#ffffff" fill-opacity="1"><g transform="translate(286.353254, 345.89025)"><g><path d="M 33.84375 -43.15625 L 36.28125 0 L 27.375 0 L 26.84375 -18.46875 C 26.800781 -20.1875 26.785156 -21.71875 26.796875 -23.0625 C 26.804688 -24.414062 26.832031 -25.691406 26.875 -26.890625 C 26.914062 -28.085938 26.984375 -29.289062 27.078125 -30.5 C 27.171875 -31.71875 27.269531 -33.039062 27.375 -34.46875 L 22.515625 -7.34375 L 14.796875 -7.34375 L 9.5625 -34.46875 C 9.6875 -33.101562 9.796875 -31.8125 9.890625 -30.59375 C 9.984375 -29.382812 10.050781 -28.164062 10.09375 -26.9375 C 10.132812 -25.707031 10.164062 -24.390625 10.1875 -22.984375 C 10.207031 -21.585938 10.195312 -20.03125 10.15625 -18.3125 L 9.84375 0 L 1.09375 0 L 3.515625 -43.15625 L 14.015625 -43.15625 L 18.8125 -15.265625 L 23.359375 -43.15625 Z M 33.84375 -43.15625 "/></g></g></g></svg>